<?xml version="1.0" encoding="utf-8"?>
<!-- Generator: Adobe Illustrator 26.0.1, SVG Export Plug-In . SVG Version: 6.00 Build 0)  -->
<svg version="1.1" id="Warstwa_1" xmlns="http://www.w3.org/2000/svg" xmlns:xlink="http://www.w3.org/1999/xlink" x="0px" y="0px"
	 viewBox="0 0 145 145" style="enable-background:new 0 0 145 145;" xml:space="preserve">
<style type="text/css">
	.st0{fill:#29D17D;}
	.st1{fill:none;stroke:#000000;stroke-width:1.5;stroke-miterlimit:10;}
	.st2{fill:#FFFFFF;}
</style>
<g>
	<circle class="st0" cx="73" cy="71.99" r="47.11"/>
	<path class="st1" d="M111.36,54.09c12.63,8.95,20.62,18.84,20.62,18.84s-26.62,32.97-59.46,32.97c-32.84,0-59.46-32.97-59.46-32.97
		s26.62-32.97,59.46-32.97C87.36,39.97,100.94,46.71,111.36,54.09"/>
	<ellipse cx="74.02" cy="71.99" rx="16.83" ry="16.85"/>
	
		<rect x="74.73" y="67.04" transform="matrix(0.7071 -0.7071 0.7071 0.7071 -27.5677 77.4317)" class="st2" width="9.91" height="9.91"/>
	<path class="st1" d="M129.21,53.08c10.71,31.36-5.99,65.48-37.32,76.21c-31.32,10.73-65.4-6-76.11-37.37
		c-10.71-31.36,6-65.48,37.32-76.21c10.11-3.46,20.5-4.06,30.31-2.24"/>
</g>
</svg>
