<?xml version="1.0" encoding="utf-8"?>
<!-- Generator: Adobe Illustrator 26.0.1, SVG Export Plug-In . SVG Version: 6.00 Build 0)  -->
<svg version="1.1" id="Warstwa_1" xmlns="http://www.w3.org/2000/svg" xmlns:xlink="http://www.w3.org/1999/xlink" x="0px" y="0px"
	 viewBox="0 0 145 145" style="enable-background:new 0 0 145 145;" xml:space="preserve">
<style type="text/css">
	.st0{fill:none;stroke:#FFFFFF;stroke-width:2;stroke-miterlimit:10;}
	.st1{fill:#F7CC3D;}
	.st2{fill:none;stroke:#000000;stroke-width:2;stroke-miterlimit:10;}
	.st3{fill:none;stroke:#000000;stroke-width:1.5;stroke-miterlimit:10;}
	.st4{fill:#FFFFFF;}
</style>
<path class="st0" d="M-2.64,53.01"/>
<g>
	<path class="st1" d="M80.7,18.78c21.48,0,38.9,17.42,38.9,38.9s-17.42,38.9-38.9,38.9s-38.9-17.42-38.9-38.9
		S59.21,18.78,80.7,18.78"/>
	<g>
		<path class="st2" d="M84.78,113.44"/>
		<path class="st3" d="M84.83,112.7c1.28-15.23,11.76-29.68,11.76-29.68c5.55-6.41,8.91-14.76,8.91-23.91
			c0-20.21-16.4-36.59-36.62-36.59S32.26,38.91,32.26,59.11c0,9.14,3.36,17.49,8.91,23.91c0,0,10.85,14.41,12.2,29.61"/>
		<path class="st2" d="M84.83,112.7"/>
		<line class="st3" x1="11.25" y1="133.48" x2="30.02" y2="114.74"/>
		<line class="st3" x1="11.25" y1="13.32" x2="30.02" y2="32.06"/>
		<line class="st3" x1="112.35" y1="114.26" x2="131.61" y2="133.48"/>
		<line class="st3" x1="112.56" y1="32.82" x2="131.82" y2="13.57"/>
	</g>
	<polygon class="st4" points="78.32,65.31 69.01,83.36 59.71,65.31 69.01,47.25 	"/>
	<rect x="57.2" y="109.99" width="23.5" height="23.5"/>
</g>
</svg>
